<svg width="32" height="32" viewBox="0 0 32 32" fill="none" xmlns="http://www.w3.org/2000/svg">
<g id="plus-solid 1">
<path id="Vector" d="M18.2857 5C18.2857 3.89375 17.2643 3 16 3C14.7357 3 13.7143 3.89375 13.7143 5V14H3.4286C2.16431 14 1.14288 14.8938 1.14288 16C1.14288 17.1062 2.16431 18 3.4286 18H13.7143V27C13.7143 28.1063 14.7357 29 16 29C17.2643 29 18.2857 28.1063 18.2857 27V18H28.5715C29.8357 18 30.8572 17.1062 30.8572 16C30.8572 14.8938 29.8357 14 28.5715 14H18.2857V5Z" fill="white"/>
</g>
</svg>
